<svg xmlns="http://www.w3.org/2000/svg" viewBox="0 0 171.45 186.74"><defs><style>.cls-1{fill:#231f20;}</style></defs><g id="Layer_2" data-name="Layer 2"><g id="Layer_1-2" data-name="Layer 1"><path class="cls-1" d="M81.8,47.07c0,17.54-11.18,29.71-30,29.71A37.38,37.38,0,0,1,25.07,66.17l-3.53,8.91H.32L30.45,2.94H54.08C56.2,21.47,81.8,20.76,81.8,47.07Zm-21.23-.42c0-8.77-12.3-12-18.67-21.93L32,49.19a19.35,19.35,0,0,0,15.83,7.64C55.34,56.83,60.57,52.87,60.57,46.65Z"/><path class="cls-1" d="M169.34,44.56H114c2.27,8.09,8.66,13.2,17.45,13.2,6.82,0,12.49-2.84,15.19-6.67h22.14c-5.39,14.62-19.87,24.7-37.76,24.7-22.41,0-39.16-16.32-39.16-37.89S108.61,0,130.89,0s39,16.18,39,38.18A31.11,31.11,0,0,1,169.34,44.56ZM114.14,30.8h33.49a17,17,0,0,0-16.74-12.92C122.8,17.88,116.56,22.85,114.14,30.8Z"/><path class="cls-1" d="M170.88,155.51H115.54c2.26,8.09,8.65,13.2,17.45,13.2,6.81,0,12.49-2.84,15.18-6.67h22.14c-5.38,14.62-19.86,24.7-37.75,24.7-22.42,0-39.16-16.32-39.16-37.89s16.74-37.9,39-37.9,39,16.18,39,38.18A31.82,31.82,0,0,1,170.88,155.51Zm-55.21-13.76h33.49a17,17,0,0,0-16.74-12.92C124.33,128.83,118.09,133.8,115.67,141.75Z"/><path class="cls-1" d="M79.9,164.68V184.8H72.77c-13.13,0-22-4.85-29.68-17.41l-3.56-5.14L25,184.8H0l25.4-36.53L.43,112H25.68l14,21.55,14-21.55h25l-25,36.1,7,9.14a16.66,16.66,0,0,0,14.42,7.42Z"/><path class="cls-1" d="M126.35,90.81a7.25,7.25,0,0,1,6-2.87c2.81,0,4.77,1.49,4.77,3.82,0,3.3-4.61,4.52-7,8.23h0l4.57,8.18c.79-7,10.4-6.69,10.4-16.57,0-6.58-4.2-11.15-11.26-11.15a14,14,0,0,0-10,4"/></g></g></svg>